Coordinates
version=1
nRows=6
nColumns=36
inDegrees=yes

Units are S.I. units (second, meters, Newtons, ...)
If the header above contains a line with 'inDegrees', this indicates whether rotational values are in degrees (yes) or radians (no).

endheader
time	pelvis_tilt	pelvis_list	pelvis_rotation	pelvis_tx	pelvis_ty	pelvis_tz	hip_flexion_r	hip_adduction_r	hip_rotation_r	knee_angle_r	knee_angle_r_beta	ankle_angle_r	subtalar_angle_r	mtp_angle_r	hip_flexion_l	hip_adduction_l	hip_rotation_l	knee_angle_l	knee_angle_l_beta	ankle_angle_l	subtalar_angle_l	mtp_angle_l	lumbar_extension	lumbar_bending	lumbar_rotation	arm_flex_r	arm_add_r	arm_rot_r	elbow_flex_r	pro_sup_r	arm_flex_l	arm_add_l	arm_rot_l	elbow_flex_l	pro_sup_l
      1.65833330	      3.01483685	      0.15897543	      1.06574738	     -0.93791236	      1.27392804	     -0.00847585	     -1.33727508	      0.97649555	      1.12928208	      7.05964370	      0.12321403	      1.41033105	    -25.39733080	     -7.49999987	     -0.78182199	     -2.37519848	      9.78297824	      9.46957459	      0.16527526	      7.97987468	    -13.74479427	     -7.49999987	    -20.90459508	     -0.59841861	      1.17701277	      2.73655522	     -7.67573869	      9.24118854	     24.93432110	     81.67581093	      3.23217163	     -6.76256158	     10.48468009	     23.05149138	     87.97660487
      1.66250000	      3.03064671	      0.15001920	      1.06249930	     -0.93787887	      1.28006757	     -0.00684366	     -1.29598076	      0.98883733	      1.12547550	      7.13321926	      0.12449816	      1.40961182	    -25.29243233	     -7.49999987	     -0.71394328	     -2.35684704	      9.76811211	      9.51969604	      0.16615004	      7.96974028	    -13.70962212	     -7.49999987	    -20.89793742	     -0.59547193	      1.17613061	      2.73240267	     -7.67758024	      9.24054275	     24.97294377	     81.65862305	      3.22805203	     -6.76138718	     10.48466430	     23.09413741	     87.95192872
      1.66666670	      3.08305500	      0.23066844	      1.09300816	     -0.93878163	      1.27695078	     -0.00674301	     -1.55466572	      0.91463791	      1.01346720	      6.68232196	      0.11662852	      1.46030183	    -24.84355117	     -7.49999987	     -0.82263494	     -2.27171209	      9.75697873	      9.37805806	      0.16367799	      7.68003282	    -13.75027982	     -7.49999987	    -21.09004277	     -0.65786439	      1.15177385	      2.81042175	     -7.63262374	      9.00162296	     24.91519741	     81.82873928	      3.35288477	     -6.77311482	     10.56338858	     23.00710085	     88.03228028
      1.67083330	      3.16318160	      0.26698325	      1.10782556	     -0.93941831	      1.27753321	     -0.00695092	     -1.66151079	      0.89407114	      0.90924375	      6.57708528	      0.11479179	      1.47982991	    -24.68028622	     -7.49999987	     -0.85474848	     -2.22980642	      9.73918515	      9.43838473	      0.16473089	      7.63532943	    -13.67469980	     -7.49999987	    -21.30971684	     -0.70837820	      1.13408566	      2.89403249	     -7.63900978	      9.16036286	     24.96856121	     80.91628406	      3.44493217	     -6.78969048	     10.78739959	     23.11254118	     87.21648258
      1.67500000	      3.22819115	      0.25872567	      1.11369272	     -0.94008366	      1.27621305	     -0.00609093	     -1.68828455	      0.93185723	      0.79816997	      6.56917054	      0.11465366	      1.50373974	    -24.63164786	     -7.49999987	     -0.83162369	     -2.25462271	      9.70091541	      9.54892428	      0.16666017	      7.70997429	    -13.70640539	     -7.49999987	    -21.53282815	     -0.72226994	      1.15075964	      3.00823760	     -7.66205093	      9.51953177	     25.00230548	     79.41430340	      3.55782652	     -6.82296721	     11.27369144	     23.17799219	     85.40979558
      1.67916670	      3.01031234	      0.26371763	      1.07485228	     -0.93930290	      1.27630113	     -0.00588259	     -1.33671965	      0.95939885	      1.00525107	      6.73178646	      0.11749184	      1.12394791	    -25.24795854	     -7.49999987	     -0.47324285	     -2.25314523	      9.73570251	      9.77668665	      0.17063537	      7.77426612	    -13.83244772	     -7.49999987	    -21.30637249	     -0.79469993	      1.20500162	      3.04231106	     -7.58469528	      9.46836572	     24.81881391	     78.37646233	      3.61657450	     -6.75670643	     11.25702380	     23.01574776	     84.27311859
